<?xml version="1.0" encoding="UTF-8" standalone="no"?>
<svg
  xmlns:dc="http://purl.org/dc/elements/1.1/"
  xmlns:cc="http://creativecommons.org/ns#"
  xmlns:rdf="http://www.w3.org/1999/02/22-rdf-syntax-ns#"
  xmlns:svg="http://www.w3.org/2000/svg"
  xmlns="http://www.w3.org/2000/svg"
  xmlns:sodipodi="http://sodipodi.sourceforge.net/DTD/sodipodi-0.dtd"
  xmlns:inkscape="http://www.inkscape.org/namespaces/inkscape"
  width="512"
  height="512"
  viewBox="0 0 512 512"
  version="1.1"
  inkscape:version="0.91 r13725"
  sodipodi:docname="arrow-right.svg">
  <path
    d="M 256,16 C 123.59033,16 16,123.59036 16,256 16,388.40964 123.59033,496 256,496 388.40967,496 496,388.40964 496,256 496,123.59036 388.40967,16 256,16 Z m 0,23.414634 c 119.75547,0 216.58537,96.829936 216.58537,216.585366 0,119.75543 -96.8299,216.58537 -216.58537,216.58537 C 136.24454,472.58537 39.414634,375.75543 39.414634,256 39.414634,136.24457 136.24454,39.414634 256,39.414634 Z M 244.03683,367.21951 308.68293,256 l -64.6461,-111.21951 -40.71976,0 L 268.15759,256 203.31707,367.21951 Z" />
</svg>
