<?xml version="1.0" encoding="UTF-8" standalone="no"?>
<svg
  xmlns:dc="http://purl.org/dc/elements/1.1/"
  xmlns:cc="http://creativecommons.org/ns#"
  xmlns:rdf="http://www.w3.org/1999/02/22-rdf-syntax-ns#"
  xmlns:svg="http://www.w3.org/2000/svg"
  xmlns="http://www.w3.org/2000/svg"
  xmlns:sodipodi="http://sodipodi.sourceforge.net/DTD/sodipodi-0.dtd"
  xmlns:inkscape="http://www.inkscape.org/namespaces/inkscape"
  width="512"
  height="512"
  viewBox="0 0 512 512"
  version="1.1"
  inkscape:version="0.91 r13725"
  sodipodi:docname="arrow-left.svg">
  <path
    d="M 256,16 C 388.2839,16 496,123.71613 496,256 496,388.28387 388.2839,496 256,496 123.7161,496 16,388.28387 16,256 16,123.71613 123.7161,16 256,16 Z m 0,44.651163 C 147.84738,60.651163 60.65116,147.8474 60.65116,256 60.65116,364.1526 147.84738,451.34884 256,451.34884 364.15262,451.34884 451.34884,364.1526 451.34884,256 451.34884,147.8474 364.15262,60.651163 256,60.651163 Z M 251.40674,362.04651 189.76744,256 l 61.6393,-106.04651 38.82582,0 L 228.40788,256 290.23256,362.04651 Z" />
</svg>
