<?xml version="1.0" encoding="UTF-8" standalone="no"?>
<svg
  xmlns:dc="http://purl.org/dc/elements/1.1/"
  xmlns:cc="http://creativecommons.org/ns#"
  xmlns:rdf="http://www.w3.org/1999/02/22-rdf-syntax-ns#"
  xmlns:svg="http://www.w3.org/2000/svg"
  xmlns="http://www.w3.org/2000/svg"
  xmlns:sodipodi="http://sodipodi.sourceforge.net/DTD/sodipodi-0.dtd"
  xmlns:inkscape="http://www.inkscape.org/namespaces/inkscape"
  width="512"
  height="512"
  viewBox="0 0 512 512"
  version="1.1"
  inkscape:version="0.91 r13725"
  sodipodi:docname="basket.svg">
  <path
    d="m 376.03289,367.9752 c -21.99169,0 -39.991,17.99931 -39.991,39.991 0,21.99169 17.99931,39.99099 39.991,39.99099 21.99169,0 39.991,-17.9993 39.991,-39.99099 0,-21.99169 -17.99931,-39.991 -39.991,-39.991 z m 0,15.9964 c 13.34658,0 23.9946,10.64802 23.9946,23.9946 0,13.34658 -10.64802,23.9946 -23.9946,23.9946 -13.34658,0 -23.9946,-10.64802 -23.9946,-23.9946 0,-13.34658 10.64802,-23.9946 23.9946,-23.9946 z M 232.0653,367.9752 c -21.99169,0 -39.991,17.99931 -39.991,39.991 0,21.99169 17.99931,39.99099 39.991,39.99099 21.99169,0 39.991,-17.9993 39.991,-39.99099 0,-21.99169 -17.99931,-39.991 -39.991,-39.991 z m 0,15.9964 c 13.34658,0 23.9946,10.64802 23.9946,23.9946 0,13.34658 -10.64802,23.9946 -23.9946,23.9946 -13.34658,0 -23.9946,-10.64802 -23.9946,-23.9946 0,-13.34658 10.64802,-23.9946 23.9946,-23.9946 z m 0,-111.97481 a 7.9989996,7.9989996 0 1 0 0,15.9964 l 143.96759,0 a 7.9989996,7.9989996 0 1 0 0,-15.9964 l -143.96759,0 z m 0,-63.98559 a 7.9989996,7.9989996 0 1 0 0,15.9964 l 143.96759,0 a 7.9989996,7.9989996 0 1 0 0,-15.9964 l -143.96759,0 z M 24.112105,64.043605 a 7.9989996,7.9989996 0 1 0 0,15.9964 l 66.64125,0 113.349485,267.064885 a 7.9989996,7.9989996 0 0 0 7.34211,4.87391 l 214.10805,0 a 7.9989996,7.9989996 0 0 0 7.59203,-5.49877 l 62.4547,-190.30092 a 7.9989996,7.9989996 0 0 0 -7.59204,-10.49763 l -258.84799,0 a 7.9989996,7.9989996 0 1 0 0,15.99639 l 247.81922,0 -57.20587,174.30453 -203.0168,0 L 103.40676,68.917505 a 7.9989996,7.9989996 0 0 0 -7.373342,-4.8739 l -71.921313,0 z" />
</svg>