<?xml version="1.0" encoding="UTF-8" standalone="no"?>
<svg
  xmlns:dc="http://purl.org/dc/elements/1.1/"
  xmlns:cc="http://creativecommons.org/ns#"
  xmlns:rdf="http://www.w3.org/1999/02/22-rdf-syntax-ns#"
  xmlns:svg="http://www.w3.org/2000/svg"
  xmlns="http://www.w3.org/2000/svg"
  xmlns:sodipodi="http://sodipodi.sourceforge.net/DTD/sodipodi-0.dtd"
  xmlns:inkscape="http://www.inkscape.org/namespaces/inkscape"
  version="1.1"
  id="Слой_1"
  x="0px"
  y="0px"
  viewBox="0 0 512 512"
  xml:space="preserve"
  inkscape:version="0.91 r13725"
  sodipodi:docname="clock.svg"
  width="512"
  height="512">
  <path
    d="m 256,94.148152 c -7.74074,0 -14.07407,6.333328 -14.07407,14.074068 0,7.74074 6.33333,14.07407 14.07407,14.07407 7.74074,0 14.07407,-6.33333 14.07407,-14.07407 0,-7.74073 -6.33332,-14.074068 -14.07407,-14.074068 z M 108.22222,241.92593 c -7.74074,0 -14.07407,6.33332 -14.07407,14.07407 0,7.74074 6.33333,14.07407 14.07407,14.07407 7.74074,0 14.07407,-6.33332 14.07407,-14.07407 0,-7.74075 -6.33333,-14.07407 -14.07407,-14.07407 z m 295.55556,0 c -7.74074,0 -14.07407,6.33332 -14.07407,14.07407 0,7.74074 6.33333,14.07407 14.07407,14.07407 7.74073,0 14.07407,-6.33332 14.07407,-14.07407 0,-7.74075 -6.33334,-14.07407 -14.07407,-14.07407 z M 256,389.70371 c -7.74074,0 -14.07407,6.33333 -14.07407,14.07407 0,7.74074 6.33333,14.07407 14.07407,14.07407 7.74074,0 14.07407,-6.33333 14.07407,-14.07407 0,-7.74074 -6.33332,-14.07407 -14.07407,-14.07407 z m 63.52575,-274.52692 a 7.0377407,7.0377407 0 0 0 -6.56973,4.137 l -49.25926,105.55555 a 7.0402777,7.0402777 0 1 0 12.75463,5.96501 l 49.25926,-105.55554 a 7.0377407,7.0377407 0 0 0 -6.1849,-10.10202 z m -35.3776,133.78617 a 7.0377407,7.0377407 0 1 0 0,14.07408 l 70.37036,0 a 7.0377407,7.0377407 0 1 0 0,-14.07408 l -70.37036,0 z M 256,220.81481 c -19.34889,0 -35.18519,15.8363 -35.18519,35.18519 0,19.34889 15.8363,35.18519 35.18519,35.18519 19.34889,0 35.18519,-15.8363 35.18519,-35.18519 0,-19.34889 -15.8363,-35.18519 -35.18519,-35.18519 z m 0,14.07408 c 11.7427,0 21.11111,9.3684 21.11111,21.11111 0,11.74271 -9.36841,21.11111 -21.11111,21.11111 -11.7427,0 -21.11111,-9.3684 -21.11111,-21.11111 0,-11.74271 9.36841,-21.11111 21.11111,-21.11111 z M 256,66 C 151.14924,66 66,151.14927 66,256 66,360.85073 151.14924,446 256,446 360.85075,446 446,360.85073 446,256 446,151.14927 360.85075,66 256,66 Z m 0,14.074071 c 97.24455,0 175.92593,78.681399 175.92593,175.925929 0,97.24453 -78.68138,175.92593 -175.92593,175.92593 C 158.75545,431.92593 80.074075,353.24453 80.074075,256 80.074075,158.75547 158.75545,80.074071 256,80.074071 Z" />
</svg>