<?xml version="1.0" encoding="UTF-8" standalone="no"?>
<svg
  xmlns:dc="http://purl.org/dc/elements/1.1/"
  xmlns:cc="http://creativecommons.org/ns#"
  xmlns:rdf="http://www.w3.org/1999/02/22-rdf-syntax-ns#"
  xmlns:svg="http://www.w3.org/2000/svg"
  xmlns="http://www.w3.org/2000/svg"
  xmlns:sodipodi="http://sodipodi.sourceforge.net/DTD/sodipodi-0.dtd"
  xmlns:inkscape="http://www.inkscape.org/namespaces/inkscape"
  width="512"
  height="512"
  viewBox="0 0 512 512"
  version="1.1"
  inkscape:version="0.91 r13725"
  sodipodi:docname="coffee.svg">
  <path
    d="m 122.88496,70.93684 c -32.857737,0 -62.360127,18.08392 -83.27546,46.38112 -20.915332,28.2972 -33.6094987,66.92586 -33.6094987,109.46549 0,42.53964 12.6941667,81.1683 33.6094987,109.4655 20.915333,28.2972 50.417723,46.38112 83.27546,46.38112 32.85774,0 62.36013,-18.08392 83.27547,-46.38112 20.91533,-28.2972 33.60949,-66.92586 33.60949,-109.4655 0,-42.53963 -12.69416,-81.16829 -33.60949,-109.46549 C 185.24509,89.02076 155.7427,70.93684 122.88496,70.93684 Z m 0,12.98722 c 28.10972,0 53.79901,15.34712 72.8375,41.10506 19.03847,25.75794 31.06025,61.80857 31.06025,101.75433 0,39.94576 -12.02178,75.9964 -31.06025,101.75434 -17.53794,23.72777 -40.83817,38.01625 -66.35657,40.21725 -14.88148,-35.38406 -9.52393,-75.43872 3.81753,-155.92272 l 0,-0.026 0,-0.039 c 9.99428,-63.944 -10.09057,-104.44652 -26.8115,-126.59849 5.4147,-1.19788 10.86885,-2.24484 16.51304,-2.24484 z M 93.56226,90.405 c 15.44224,19.00861 36.74709,56.55492 26.79882,120.3093 -12.80311,77.23635 -18.53645,119.74475 -4.38826,157.99003 C 90.625811,366.37254 67.485825,352.13089 50.04747,328.53779 31.008991,302.77985 18.987219,266.72921 18.987219,226.78345 c 0,-39.94576 12.021772,-75.99639 31.060251,-101.75433 C 62.161413,108.63964 77.153083,97.09459 93.56226,90.405 Z m 328.57407,110.45473 c -36.7618,-1.09943 -77.60595,16.22084 -109.74452,48.84162 -25.72794,26.11392 -41.35909,57.77981 -45.53136,88.15834 -4.17227,30.37853 3.31889,59.8336 24.3003,79.8384 20.92417,19.95018 50.55654,26.7023 80.87841,21.86521 30.32187,-4.83708 61.64149,-21.11598 87.35933,-47.66211 25.68926,-26.51659 41.31979,-58.16222 45.49331,-88.43737 4.17352,-30.27509 -3.33708,-59.53386 -24.3003,-79.52132 -15.70733,-14.97621 -36.39943,-22.42308 -58.45517,-23.08277 z m -0.38046,12.98722 c 9.56932,0.28637 18.59684,2.03867 26.90029,5.18729 -1.73622,19.99311 -12.24846,58.46534 -56.79372,91.43053 -53.72916,39.18614 -81.74655,61.63617 -96.8334,91.43054 -13.29779,-16.34857 -18.61917,-38.16522 -15.30818,-62.27274 3.73962,-27.22842 18.04986,-56.57713 41.92943,-80.81498 29.87083,-30.31898 67.75831,-45.92806 100.10558,-44.96064 z m 38.708,12.46721 c 3.72897,2.35289 7.92104,3.93785 11.17357,7.03901 17.52537,16.70961 24.13236,41.21656 20.39399,68.3351 -3.73837,27.11848 -18.04923,56.4942 -41.96748,81.18278 -23.88968,24.65909 -52.86591,39.53069 -80.0667,43.86991 -25.18528,4.01766 -48.31262,-1.28249 -65.58292,-15.32089 12.80997,-28.34097 38.91227,-49.48877 95.13391,-90.49195 l 0.013,-0.013 0.0253,-0.013 c 44.06312,-32.60844 57.42582,-70.60592 60.87758,-94.58857 z" />
</svg>