<?xml version="1.0" encoding="UTF-8" standalone="no"?>
<svg
  xmlns:dc="http://purl.org/dc/elements/1.1/"
  xmlns:cc="http://creativecommons.org/ns#"
  xmlns:rdf="http://www.w3.org/1999/02/22-rdf-syntax-ns#"
  xmlns:svg="http://www.w3.org/2000/svg"
  xmlns="http://www.w3.org/2000/svg"
  xmlns:sodipodi="http://sodipodi.sourceforge.net/DTD/sodipodi-0.dtd"
  xmlns:inkscape="http://www.inkscape.org/namespaces/inkscape"
  width="512"
  height="512"
  viewBox="0 0 512 512"
  version="1.1"
  inkscape:version="0.91 r13725"
  sodipodi:docname="globe.svg">
  <path
    d="m 324.73518,65.70464 c -20.59385,0 -37.382,16.78816 -37.382,37.38201 0,20.59384 16.78815,37.382 37.382,37.382 20.59384,0 37.382,-16.78816 37.382,-37.382 0,-20.59385 -16.78816,-37.38201 -37.382,-37.38201 z m 0,8.4801 c 16.01085,0 28.9019,12.89105 28.9019,28.90191 0,16.01086 -12.89105,28.9019 -28.9019,28.9019 -16.01086,0 -28.9019,-12.89104 -28.9019,-28.9019 0,-16.01086 12.89104,-28.90191 28.9019,-28.90191 z m 0,-58.18474 c -51.09776,0 -92.61859,41.52086 -92.61859,92.61863 0,2.35925 0.10439,4.72104 0.28154,7.07223 -94.19421,11.64496 -167.200375,91.9655 -167.200375,189.29499 0,105.327 85.475295,190.80225 190.802245,190.80225 1.09901,0 2.1848,-0.0678 3.27941,-0.0848 1.06971,0.42315 2.2653,0.39262 3.31254,-0.0848 102.27432,-3.47803 184.21029,-87.51472 184.21029,-190.63265 0,-49.89877 -19.20849,-95.32794 -50.59903,-129.33805 12.1825,-20.6856 21.134,-43.70644 21.134,-67.02917 C 417.33721,57.52086 375.83294,16 324.73518,16 Z m 60.73541,160.62504 c -6.16015,9.85659 -12.93715,19.24211 -19.84212,27.69279 -19.64731,24.04549 -37.19877,39.06705 -40.89329,42.18518 -3.6945,-3.11813 -21.26254,-18.13969 -40.90985,-42.18518 -18.66143,-22.83886 -36.94105,-52.00642 -42.41706,-85.26473 -0.72038,-6.2894 -0.81163,-8.36202 -0.81163,-10.43447 0,-46.51479 37.62372,-84.13853 84.1385,-84.13853 46.51479,0 84.12193,37.62374 84.12193,84.13853 0,20.35809 -7.89431,41.28375 -18.89803,60.5697 m -156.53402,-45.0836 c 5.07562,31.70599 24.58084,62.00717 43.84144,85.57939 22.38013,27.39013 44.76897,45.81246 44.76897,45.81246 l 2.69972,2.2028 2.69972,-2.2028 c 0,0 22.38884,-18.42233 44.76896,-45.81246 6.60338,-8.08154 13.17156,-17.01948 19.24585,-26.46716 22.89398,25.45124 38.84261,57.25738 44.52053,92.60201 -1.25669,0.0509 -2.57529,0.31462 -3.74317,1.09317 -3.65027,2.43354 -5.95764,7.00287 -8.51322,17.22521 -2.31362,9.25441 -5.21793,13.91601 -10.79888,16.9602 -5.58096,3.04418 -14.77324,4.38913 -29.26629,4.38913 -16.61305,0 -27.88641,11.32245 -35.01353,24.2809 -7.12712,12.95835 -10.82851,28.02664 -13.28328,37.84575 -5.1515,20.60596 0.32428,32.38262 5.23381,42.20172 4.83471,9.66944 12.6883,11.15676 15.93332,11.56075 l 12.43856,16.57928 c -28.50675,22.54875 -63.829,36.8501 -102.47339,39.0383 2.6275,-13.29196 -1.43414,-24.39885 -8.31447,-33.57263 -7.87309,-10.49743 -19.06767,-19.11736 -28.63689,-28.68656 -5.34676,-5.34679 -10.48541,-7.91702 -15.55237,-8.2151 -5.06696,-0.2985 -9.39674,1.38209 -13.94578,2.8985 -9.09812,3.03265 -19.63304,6.46837 -40.87674,-0.61311 -10.08552,-3.36185 -13.78699,-8.15701 -15.0058,-13.76363 -1.21882,-5.60653 0.5126,-12.73499 3.94192,-19.59361 3.42932,-6.8587 8.45059,-13.35319 12.72015,-17.62275 1.97611,-1.97611 3.70848,-3.32318 4.95225,-4.12412 0.22413,0.33751 0.24635,0.30867 0.49685,0.72844 0.83384,1.39871 1.83039,3.21302 2.94815,5.21721 2.23551,4.00854 4.90661,8.73951 7.91696,12.75331 3.01037,4.0138 6.21215,7.8647 11.44483,8.4304 2.61634,0.28239 5.47577,-0.7861 7.51947,-2.69972 2.0437,-1.9132 3.56802,-4.49785 4.93568,-7.91694 1.81776,-4.5444 8.08066,-13.55951 12.6539,-23.7012 4.57324,-10.14177 7.6444,-22.32513 1.92127,-33.77132 -4.46422,-8.92844 -5.18802,-18.36569 -3.42849,-25.5563 1.75955,-7.19062 5.70906,-11.67235 10.28544,-12.58761 7.3096,-1.46197 12.32417,-6.25212 14.24391,-12.10738 1.91975,-5.85517 1.42582,-12.4392 0.13255,-19.22922 -2.58671,-13.5802 -8.80355,-28.48982 -11.097,-37.6636 -1.5601,-6.24033 -6.69753,-10.10022 -11.9914,-10.69951 -5.29385,-0.59954 -10.76081,0.88482 -16.23142,2.81565 -5.47065,1.93083 -10.91794,4.43195 -15.51925,6.39323 -4.60134,1.96119 -8.76923,3.18004 -9.45731,3.18004 -5.81347,0 -8.91183,1.65769 -10.66637,1.75563 -1.75451,0.0975 -4.25224,-0.43333 -11.31229,-5.79691 -5.66062,-4.30051 -13.14188,-3.19208 -20.78618,-0.79458 -7.6443,2.39698 -15.9651,6.54825 -23.78403,11.01412 -6.935015,3.96105 -13.266304,8.07984 -18.401153,11.56075 C 112.25046,175.68452 167.34351,132.26038 233.42506,124.10456 Z M 212.7879,213.3114 c 2.83755,0.32139 3.84226,0.76066 4.73693,4.33943 2.61608,10.46428 8.67481,25.00493 10.99763,37.19983 1.16141,6.09736 1.28117,11.48561 0.13255,14.98917 -1.14872,3.50363 -2.88649,5.45007 -7.85073,6.44292 -8.71204,1.74241 -14.57817,9.55317 -16.86082,18.88145 -2.28265,9.32837 -1.28043,20.66007 4.07443,31.36976 4.09593,8.19186 2.04956,17.36393 -2.07034,26.50031 -4.11991,9.13637 -10.11703,17.31763 -12.80296,24.03243 -1.08711,2.71779 -2.17186,4.26778 -2.83223,4.88606 -0.66034,0.6182 -0.60616,0.4715 -0.82816,0.44691 -0.44394,-0.0509 -3.06877,-1.73427 -5.58163,-5.08476 -2.51287,-3.35048 -5.05727,-7.82314 -7.27103,-11.79259 -1.10688,-1.98477 -2.13096,-3.83954 -3.08065,-5.43261 -0.9497,-1.59299 -1.69329,-2.85262 -2.9316,-4.09097 -1.61855,-1.61851 -3.88963,-1.6961 -5.26694,-1.40787 -1.37732,0.28833 -2.43586,0.84208 -3.54442,1.50726 -2.21712,1.33027 -4.52155,3.2628 -6.98946,5.73068 -4.93581,4.93584 -10.37519,11.95558 -14.31017,19.82554 -3.93497,7.86996 -6.48719,16.68349 -4.63755,25.19183 1.84964,8.50834 8.59662,15.98872 20.60399,19.99124 22.94208,7.64736 36.93042,3.717 46.24305,0.61311 4.65632,-1.55211 8.00815,-2.63001 10.76575,-2.46779 2.75761,0.16197 5.58125,1.2749 10.05356,5.74722 10.0689,10.06893 20.98639,18.63502 27.84188,27.77563 6.3367,8.44889 9.4406,16.85717 6.32696,28.75288 -0.57071,0.005 -1.134,0.0509 -1.70596,0.0509 -100.74396,0 -182.322151,-81.57813 -182.322151,-182.32214 0,-19.53722 3.113893,-38.34141 8.794791,-55.98189 0.971612,-0.72759 13.258816,-9.90611 27.72595,-18.16929 7.52335,-4.29704 15.48718,-8.20823 22.1112,-10.28543 6.62402,-2.07711 11.41398,-1.84086 13.11765,-0.54612 7.66855,5.82592 12.52814,7.74759 16.91051,7.50294 4.38238,-0.24507 6.19704,-1.7391 10.20263,-1.7391 4.22145,0 8.02894,-1.83136 12.7864,-3.85912 4.75746,-2.02776 10.04368,-4.44306 15.0058,-6.19446 4.96212,-1.75131 9.6176,-2.72279 12.45515,-2.40156 z m 223.87795,71.28583 c 0.16349,0.0424 0.32945,0.0763 0.49685,0.0992 0.73734,6.66485 1.15939,13.4268 1.15939,20.28923 0,54.96792 -24.40487,104.10128 -62.83887,137.52008 l -14.26048,-19.01399 -2.12002,0 c 0,0 -7.03316,0.32648 -10.93138,-7.4697 -4.90953,-9.8191 -9.25542,-17.68491 -4.58787,-36.35512 2.45477,-9.8191 6.11418,-24.21933 12.48827,-35.80857 6.3741,-11.58925 14.73277,-19.89177 27.57689,-19.89177 14.96415,0 25.40389,-1.11242 33.32414,-5.43261 7.92026,-4.3201 12.37677,-11.94286 14.97268,-22.32649 2.23232,-8.92929 4.44529,-11.30906 4.72037,-11.61045 z" />
</svg>