<?xml version="1.0" encoding="UTF-8" standalone="no"?>
<svg
  xmlns:dc="http://purl.org/dc/elements/1.1/"
  xmlns:cc="http://creativecommons.org/ns#"
  xmlns:rdf="http://www.w3.org/1999/02/22-rdf-syntax-ns#"
  xmlns:svg="http://www.w3.org/2000/svg"
  xmlns="http://www.w3.org/2000/svg"
  xmlns:sodipodi="http://sodipodi.sourceforge.net/DTD/sodipodi-0.dtd"
  xmlns:inkscape="http://www.inkscape.org/namespaces/inkscape"
  width="512"
  height="512"
  viewBox="0 0 512 512"
  version="1.1"
  inkscape:version="0.91 r13725"
  sodipodi:docname="instagram.svg">
  <path
    d="M 425.24118,476 86.758819,476 C 58.728158,476 36,453.2642 36,425.21416 L 36,86.759326 C 36,58.72414 58.728158,36 86.758819,36 L 425.24118,36 C 453.27502,36 476,58.72414 476,86.759326 l 0,338.454834 C 476,453.2642 453.27502,476 425.24118,476 l 0,0 z M 252.61501,175.33334 c -46.73474,0 -84.61501,37.87745 -84.61501,84.61265 0,46.72883 37.88027,84.62432 84.61501,84.62432 46.7358,0 84.62351,-37.89549 84.62351,-84.62432 0,-46.7352 -37.88771,-84.61265 -84.62351,-84.61265 l 0,0 z m 168.67198,-71.07917 c 0,-9.34045 -7.58031,-16.920836 -16.94083,-16.920836 l -50.75777,0 c -9.34887,0 -16.92173,7.580386 -16.92173,16.920836 l 0,50.7784 c 0,9.34153 7.57286,16.92083 16.92173,16.92083 l 50.75777,0 c 9.36052,0 16.94083,-7.5793 16.94083,-16.92083 l 0,-50.7784 0,0 z m 4.52869,122.41249 -38.30464,0 c 2.79129,10.83426 4.43997,22.15335 4.43997,33.85758 0,74.78205 -60.60951,135.38789 -135.37915,135.38789 -74.76542,0 -135.37809,-60.60584 -135.37809,-135.38789 0,-11.70423 1.65607,-23.02332 4.44738,-33.85758 l -38.307816,0 0,186.17055 c 0,9.33303 7.579229,16.90916 16.939766,16.90916 l 304.60175,0 c 9.36052,0 16.94083,-7.57613 16.94083,-16.90916 l 0,-186.17055 0,0 z" />
</svg>
