<?xml version="1.0" encoding="UTF-8" standalone="no"?>
<svg
  xmlns:dc="http://purl.org/dc/elements/1.1/"
  xmlns:cc="http://creativecommons.org/ns#"
  xmlns:rdf="http://www.w3.org/1999/02/22-rdf-syntax-ns#"
  xmlns:svg="http://www.w3.org/2000/svg"
  xmlns="http://www.w3.org/2000/svg"
  xmlns:sodipodi="http://sodipodi.sourceforge.net/DTD/sodipodi-0.dtd"
  xmlns:inkscape="http://www.inkscape.org/namespaces/inkscape"
  width="512"
  height="512"
  viewBox="0 0 512 512"
  version="1.1"
  inkscape:version="0.91 r13725"
  sodipodi:docname="moped.svg">
  <path
    d="m 282.36814,129.50221 0,13.00197 42.61165,0 34.66005,131.67951 c -36.37702,7.83529 -47.956,33.75113 -51.21997,44.31899 l 0,-0.3943 -232.447881,0 c 2.604357,-55.28137 40.371841,-78.04214 42.325121,-78.69251 l 21.47895,-12.35729 -59.243227,0 0,-19.50892 164.071027,0 -4.54891,19.50892 -30.60065,0 -1.31332,5.20562 c -0.65109,1.95107 -10.41327,49.42387 22.79227,74.78829 l 7.80837,-10.41113 c -21.48594,-15.60889 -20.17835,-44.8741 -18.87618,-56.58073 l 29.95592,0 11.06781,-45.52491 -193.382205,0 0,45.52489 29.299255,0 C 81.83116,254.36905 61,281.04089 61,324.61563 l 0,6.49503 244.80515,0 2.61472,0 142.58013,0 -1.30139,-7.79643 c -0.65109,-0.65035 -9.7613,-51.38709 -67.70825,-51.38709 -3.30322,0 -6.36097,0.22249 -9.38436,0.4658 l -18.76872,-71.34979 5.36078,0 c 1.30218,0 7.8108,0.003 13.6706,-5.8503 5.20873,-5.20292 7.8203,-13.00723 7.8203,-23.41315 0,-10.40585 -2.61157,-18.21015 -7.8203,-23.41308 -5.8598,-5.85335 -13.01949,-5.86227 -13.6706,-5.86227 l -20.77452,0 -3.35497,-12.76319 -7.12781,1.87446 0,-2.11324 -45.57262,0 z m 59.48201,26.01592 17.34791,0 c 1.30218,0 8.46505,1.30297 8.46505,16.26146 0,14.95848 -7.16287,16.2614 -8.46505,16.2614 l -8.78737,0 -8.56054,-32.52286 z m -215.74468,97.55667 0,13.00204 45.58457,0 0,-13.00202 -45.58457,0 z m -13.01393,32.51097 0,13.01393 58.5985,0 0,-13.01393 -58.5985,0 z m 269.54353,0 c 34.50775,0 47.53393,20.81623 52.09155,32.52292 l -111.99143,0 c 4.55762,-11.70669 19.53235,-32.52292 59.89988,-32.52292 z M 108.5307,337.61761 c 0,26.01475 20.18651,44.88017 44.92788,44.88017 24.74141,0 44.27125,-18.8654 44.27125,-44.88017 l -13.02586,0 c 0,19.51107 -13.66596,31.86622 -31.24539,31.86622 -17.57939,0 -31.90202,-12.35516 -31.90202,-31.86622 l -13.02586,0 z m 228.53175,0 c 0,26.01475 20.18652,44.88017 44.92791,44.88017 24.7414,0 44.91595,-18.8654 44.91595,-44.88017 l -13.01392,0 c 0,19.51107 -14.32261,31.86622 -31.90203,31.86622 -17.57941,0 -31.90204,-12.35516 -31.90204,-31.86622 l -13.02587,0 z" />
</svg>
