<?xml version="1.0" encoding="UTF-8" standalone="no"?>
<svg
  xmlns:dc="http://purl.org/dc/elements/1.1/"
  xmlns:cc="http://creativecommons.org/ns#"
  xmlns:rdf="http://www.w3.org/1999/02/22-rdf-syntax-ns#"
  xmlns:svg="http://www.w3.org/2000/svg"
  xmlns="http://www.w3.org/2000/svg"
  xmlns:sodipodi="http://sodipodi.sourceforge.net/DTD/sodipodi-0.dtd"
  xmlns:inkscape="http://www.inkscape.org/namespaces/inkscape"
  width="512"
  height="512"
  viewBox="0 0 512 512"
  version="1.1"
  inkscape:version="0.91 r13725"
  sodipodi:docname="twitter.svg">
  <path
    d="m 166.95798,448.17001 c -55.62164,0 -107.38066,-16.06201 -150.957983,-43.59146 7.707674,0.8947 15.538251,1.35548 23.49173,1.35548 46.140665,0 88.594303,-15.51196 122.304383,-41.53447 -43.10326,-0.78312 -79.464498,-28.83719 -92.000422,-67.38424 6.022148,1.13232 12.184783,1.7398 18.522994,1.7398 8.98934,0 17.697778,-1.18604 25.949728,-3.40275 C 69.216283,286.4401 35.277964,247.22358 35.277964,200.21036 l 0,-1.21703 c 13.290904,7.2673 28.460429,11.6317 44.61319,12.13525 -26.4238,-17.39931 -43.805563,-47.09958 -43.805563,-80.75968 0,-17.78322 4.845837,-34.448995 13.32603,-48.781115 48.563581,58.703595 121.128049,97.332055 202.980349,101.378245 -1.68546,-7.10304 -2.54582,-14.50693 -2.54582,-22.11146 0,-53.58315 44.08648,-97.025825 98.47909,-97.025825 28.31999,0 53.91858,11.78233 71.87975,30.64146 22.42071,-4.35241 43.50706,-12.42742 62.53921,-23.5471 -7.35651,22.65798 -22.98254,41.672905 -43.31394,53.680055 19.92759,-2.34399 38.90706,-7.56134 56.56974,-15.27662 -13.20311,19.45587 -29.90015,36.54731 -49.14299,50.2271 0.19216,4.16046 0.28101,8.34508 0.28101,12.55037 0,128.21921 -99.04093,276.06724 -280.17996,276.06724 l 0,0 z" />
</svg>
