<?xml version="1.0" encoding="UTF-8" standalone="no"?>
<svg
  xmlns:dc="http://purl.org/dc/elements/1.1/"
  xmlns:cc="http://creativecommons.org/ns#"
  xmlns:rdf="http://www.w3.org/1999/02/22-rdf-syntax-ns#"
  xmlns:svg="http://www.w3.org/2000/svg"
  xmlns="http://www.w3.org/2000/svg"
  xmlns:sodipodi="http://sodipodi.sourceforge.net/DTD/sodipodi-0.dtd"
  xmlns:inkscape="http://www.inkscape.org/namespaces/inkscape"
  width="512"
  height="512"
  viewBox="0 0 512 512"
  version="1.1"
  inkscape:version="0.91 r13725"
  sodipodi:docname="vkontakte.svg">
  <path
    d="m 250.85026,392.95475 28.6901,0 c 0,0 8.66416,-0.96331 13.09428,-5.77136 4.07178,-4.4193 3.94163,-12.71235 3.94163,-12.71235 0,0 -0.56107,-38.83267 17.30298,-44.55119 17.61735,-5.63667 40.23442,37.53007 64.20538,54.12979 18.12781,12.55719 31.90324,9.80876 31.90324,9.80876 l 64.10229,-0.90366 c 0,0 33.53093,-2.0869 17.63087,-28.68122 -1.30145,-2.17214 -9.2625,-19.67208 -47.66302,-55.62676 -40.19725,-37.63238 -34.80877,-31.54388 13.60811,-96.63841 29.48619,-39.64255 41.27222,-63.84309 37.5892,-74.20767 -3.50893,-9.87526 -25.19807,-7.26665 -25.19807,-7.26665 l -72.17317,0.45014 c 0,0 -5.35468,-0.73486 -9.31998,1.659 -3.87909,2.34094 -6.36881,7.81052 -6.36881,7.81052 0,0 -11.4277,30.67435 -26.65675,56.7657 -32.13819,55.04708 -44.99075,57.9609 -50.24402,54.53729 -12.2221,-7.96739 -9.16785,-32.00083 -9.16785,-49.07964 0,-53.34891 8.02188,-75.59211 -15.62118,-81.34983 -7.84439,-1.90958 -13.62332,-3.17298 -33.68813,-3.37928 -25.75417,-0.26425 -47.54641,0.0801 -59.88852,6.17885 -8.21119,4.05617 -14.54619,13.09257 -10.68569,13.61258 4.77155,0.64102 15.57216,2.94111 21.29869,10.80108 7.39818,10.15316 7.13956,32.94537 7.13956,32.94537 0,0 4.25095,62.79963 -9.92507,70.59822 -9.72731,5.35023 -23.07344,-5.57188 -51.72636,-55.51423 -14.67803,-25.58156 -25.76431,-53.86212 -25.76431,-53.86212 0,0 -2.13476,-5.28374 -5.94794,-8.1123 -4.62449,-3.42702 -11.08626,-4.51309 -11.08626,-4.51309 l -68.586501,0.45174 c 0,0 -10.29355,0.28989 -14.076303,4.80636 -3.365253,4.02034 -0.268695,12.32532 -0.268695,12.32532 0,0 53.692109,126.71771 114.493359,190.57615 55.75589,58.55592 119.05699,54.71288 119.05699,54.71288" />
</svg>
