<?xml version="1.0" encoding="UTF-8" standalone="no"?>
<svg width="30px" height="46px" viewBox="0 0 30 46" version="1.1" xmlns="http://www.w3.org/2000/svg" xmlns:xlink="http://www.w3.org/1999/xlink">
    <!-- Generator: sketchtool 39.1 (31720) - http://www.bohemiancoding.com/sketch -->
    <title>BAB7C599-00AE-4FB8-9EB7-B2E832103C51</title>
    <desc>Created with sketchtool.</desc>
    <defs>
        <path d="M8.70967742,23.4375 L21.2903226,23.4375 L29.1802464,38.7242274 C30.701922,41.672474 29.2493743,44.0625 25.9385442,44.0625 L4.06145585,44.0625 C0.749437496,44.0625 -0.703949222,41.6764016 0.819753593,38.7242274 L8.70967742,23.4375 Z" id="path-1"></path>
        <mask id="mask-2" maskContentUnits="userSpaceOnUse" maskUnits="objectBoundingBox" x="0" y="0" width="29.5696811" height="20.625" fill="white">
            <use xlink:href="#path-1"></use>
        </mask>
    </defs>
    <g id="Welcome" stroke="none" stroke-width="1" fill="none" fill-rule="evenodd" stroke-linecap="round">
        <g id="Подписка-на-кофе@2x-Copy-3" transform="translate(-943.000000, -1765.000000)" stroke="#FFFFFF">
            <g id="Group-Copy-11" transform="translate(180.000000, 1327.000000)">
                <g id="Group-14" transform="translate(592.000000, 151.000000)">
                    <g id="Group-15" transform="translate(0.000000, 180.000000)">
                        <g id="kemex" transform="translate(171.000000, 108.000000)">
                            <path d="M8.43750002,23.90625 C7.49048615,23.90625 6.80904852,23.9659548 6.5625,23.4375 C6.13438475,22.5191546 7.24121035,20.9126399 7.47868052,20.625 C9.3951652,17.6248486 8.60248305,16.0692902 7.47868052,14.0625 C7.01616315,13.2363714 6.73309831,12.2175724 7.03125,11.7087077 C7.44503104,11.0025087 7.96874995,10.78125 8.58810221,10.78125 L21.5625,10.78125 C22.0312494,10.78125 22.5554462,11.0034643 22.9687494,11.7087077 C23.2673789,12.2175724 23.0637973,13.2358935 22.6008022,14.0625 C21.4774774,16.0692902 20.6847944,17.6243708 22.6008013,20.625 C22.8382715,20.9131177 23.8651377,22.5191546 23.4375003,23.4375 C23.1909518,23.9664326 22.5104695,23.9062497 21.5625,23.9062497 L8.43750002,23.90625 Z" id="Path"></path>
                            <use id="Rectangle-242" mask="url(#mask-2)" stroke-width="2" xlink:href="#path-1"></use>
                            <polyline id="Path-4603" stroke-linejoin="round" points="8.4375 10.3125 2.34375 2.34375 5.625 0.46875 25.78125 0.46875 21.5625 10.3125"></polyline>
                            <path d="M6.5625,2.34375 L8.90625,7.03125" id="Path-4604"></path>
                            <path d="M8.90625,17.34375 L21.09375,17.34375" id="Path-4605"></path>
                        </g>
                    </g>
                </g>
            </g>
        </g>
    </g>
</svg>