<?xml version="1.0" encoding="UTF-8" standalone="no"?>
<svg width="35px" height="49px" viewBox="0 0 35 49" version="1.1" xmlns="http://www.w3.org/2000/svg" xmlns:xlink="http://www.w3.org/1999/xlink">
    <!-- Generator: sketchtool 39.1 (31720) - http://www.bohemiancoding.com/sketch -->
    <title>1451888F-AF5C-4C10-9EBD-91683EFF9929</title>
    <desc>Created with sketchtool.</desc>
    <defs>
        <path d="M7.22167659,10.9950893 C7.09924799,9.8932319 7.90234375,9 8.99456145,9 L26.0054385,9 C27.1070044,9 27.9008197,9.8926228 27.7783234,10.9950893 L26.2216766,25.0049107 C26.099248,26.1067681 25.1099416,27 23.9998938,27 L11.0001062,27 C9.89547804,27 8.90081969,26.1073772 8.77832341,25.0049107 L7.22167659,10.9950893 Z" id="path-1"></path>
        <mask id="mask-2" maskContentUnits="userSpaceOnUse" maskUnits="objectBoundingBox" x="0" y="0" width="20.5814536" height="18" fill="white">
            <use xlink:href="#path-1"></use>
        </mask>
        <path d="M6.31256271,32.9795638 C6.13993909,31.8862809 6.90162726,31 8.00086422,31 L26.9991358,31 C28.1041826,31 28.8593276,31.8909254 28.6874373,32.9795638 L26.3125627,48.0204362 C26.1399391,49.1137191 25.1099416,50 23.9998938,50 L11.0001062,50 C9.89547804,50 8.85932757,49.1090746 8.68743729,48.0204362 L6.31256271,32.9795638 Z" id="path-3"></path>
        <mask id="mask-4" maskContentUnits="userSpaceOnUse" maskUnits="objectBoundingBox" x="0" y="0" width="22.4236725" height="19" fill="white">
            <use xlink:href="#path-3"></use>
        </mask>
        <rect id="path-5" x="10" y="26" width="15" height="6"></rect>
        <mask id="mask-6" maskContentUnits="userSpaceOnUse" maskUnits="objectBoundingBox" x="0" y="0" width="15" height="6" fill="white">
            <use xlink:href="#path-5"></use>
        </mask>
        <path d="M11.2495954,3.88942616 C10.4706707,3.11050145 10.6895944,2.74479787 11.7456503,3.07481536 L19.2465127,5.41883486 C20.299401,5.74786245 21.4186753,6.86495899 21.7486929,7.92101501 L24.092713,15.4218779 C24.4217407,16.4747662 24.0504169,16.6902475 23.2781023,15.9179329 L11.2495954,3.88942616 Z" id="path-7"></path>
        <mask id="mask-8" maskContentUnits="userSpaceOnUse" maskUnits="objectBoundingBox" x="0" y="0" width="13.4293179" height="13.4268879" fill="white">
            <use xlink:href="#path-7"></use>
        </mask>
    </defs>
    <g id="Welcome" stroke="none" stroke-width="1" fill="none" fill-rule="evenodd" stroke-linecap="round">
        <g id="Подписка-на-кофе@2x-Copy-3" transform="translate(-795.000000, -1761.000000)" stroke="#FFFFFF">
            <g id="Group-Copy-11" transform="translate(180.000000, 1327.000000)">
                <g id="Group-14" transform="translate(592.000000, 151.000000)">
                    <g id="Group-15" transform="translate(0.000000, 180.000000)">
                        <g id="express" transform="translate(23.000000, 102.000000)">
                            <use id="Rectangle-243" mask="url(#mask-2)" stroke-width="2" stroke-linejoin="round" xlink:href="#path-1"></use>
                            <use id="Rectangle-243-Copy" mask="url(#mask-4)" stroke-width="2" transform="translate(17.499986, 40.500000) scale(1, -1) translate(-17.499986, -40.500000) " xlink:href="#path-3"></use>
                            <use id="Rectangle-245" mask="url(#mask-6)" stroke-width="2" xlink:href="#path-5"></use>
                            <use id="Rectangle-246" mask="url(#mask-8)" stroke-width="2" transform="translate(17.498194, 9.666780) rotate(-45.000000) translate(-17.498194, -9.666780) " xlink:href="#path-7"></use>
                            <circle id="Oval-98" cx="17.5" cy="3.5" r="1.5"></circle>
                            <polyline id="Path-4606" stroke-linejoin="round" points="8.50000011 18.4999996 0.5 9.5 8.99999964 9.5"></polyline>
                            <polyline id="Path-4607" stroke-linejoin="round" points="25.5 9.5 34 9.5 31.5 26.5 29 26.5 31 12.5 27.5 12.5"></polyline>
                        </g>
                    </g>
                </g>
            </g>
        </g>
    </g>
</svg>